<svg width="159" height="32" viewBox="0 0 159 32" fill="none" xmlns="http://www.w3.org/2000/svg">
<path d="M7.78088 5.46001C8.44088 5.46001 9.62488 5.66401 9.62488 7.28901C9.62488 8.91401 8.45288 9.53901 7.78088 9.53901C7.10888 9.53901 6.07788 8.90101 6.07788 7.28901C6.07788 5.67601 7.21088 5.46001 7.78088 5.46001ZM4.15588 7.50001C4.81588 7.50001 5.99988 7.70301 5.99988 9.32801C5.99988 10.953 4.82788 11.578 4.15588 11.578C3.48388 11.578 2.45288 10.941 2.45288 9.32801C2.45288 7.71601 3.58588 7.50001 4.15588 7.50001ZM13.9999 7.28901C13.9999 5.66401 12.8159 5.46101 12.1559 5.46101C11.5859 5.46101 10.4529 5.67601 10.4529 7.28901C10.4529 8.90101 11.4839 9.53901 12.1559 9.53901C12.8279 9.53901 13.9999 8.91401 13.9999 7.28901ZM15.7029 7.50001C16.3629 7.50001 17.5469 7.70301 17.5469 9.32801C17.5469 10.953 16.3749 11.578 15.7029 11.578C15.0309 11.578 13.9999 10.941 13.9999 9.32801C13.9999 7.71601 15.1329 7.50001 15.7029 7.50001ZM14.9839 15.469C14.9839 12.547 13.0939 10.016 9.99988 10.016C6.90588 10.016 5.04688 12.484 5.04688 15.469C5.04688 17.953 8.00788 17.953 9.99288 17.953H9.99988C12.2029 17.953 14.9839 17.875 14.9839 15.469ZM16.1559 19.547C16.8159 19.547 17.9999 19.75 17.9999 21.375C17.9999 23 16.8279 23.625 16.1559 23.625C15.4839 23.625 14.4529 22.987 14.4529 21.375C14.4529 19.762 15.5859 19.547 16.1559 19.547ZM21.6249 19.336C21.6249 17.711 20.4409 17.508 19.7809 17.508C19.2109 17.508 18.0779 17.723 18.0779 19.336C18.0779 20.948 19.1089 21.586 19.7809 21.586C20.4529 21.586 21.6249 20.961 21.6249 19.336ZM24.1559 17.508C24.8159 17.508 25.9999 17.711 25.9999 19.336C25.9999 20.961 24.8279 21.586 24.1559 21.586C23.4839 21.586 22.4529 20.948 22.4529 19.336C22.4529 17.723 23.5859 17.508 24.1559 17.508ZM29.5469 21.375C29.5469 19.75 28.3629 19.547 27.7029 19.547C27.1329 19.547 25.9999 19.762 25.9999 21.375C25.9999 22.987 27.0309 23.625 27.7029 23.625C28.3749 23.625 29.5469 23 29.5469 21.375ZM21.9999 22.063C25.0939 22.063 26.9839 24.593 26.9839 27.516C26.9839 29.922 24.2039 30 21.9999 30H21.9919C20.0079 30 17.0469 30 17.0469 27.516C17.0469 24.531 18.9069 22.063 21.9999 22.063Z" fill="white"/>
<path d="M44.62 23V8.9H50.16C52.84 8.9 54.76 10.72 54.76 13.42C54.76 16.08 52.78 17.88 50.04 17.88H47.38V23H44.62ZM47.38 15.5H49.96C51.16 15.5 51.96 14.7 51.98 13.42C52 12.1 51.2 11.3 49.96 11.3H47.38V15.5ZM59.2131 23.26C57.1731 23.26 55.8931 21.98 55.8931 20.22C55.8931 18.5 57.0931 17.64 58.9731 17.32L62.0731 16.8V16.28C62.0731 15.4 61.4531 14.86 60.4531 14.86C59.4731 14.86 58.8131 15.38 58.7531 16.16H56.0931C56.1731 14.04 57.8531 12.7 60.4531 12.7C63.0531 12.7 64.6931 14.1 64.6931 16.32V21.18L65.2131 23H62.5531L62.1331 21.48C61.9331 22.18 61.1131 23.26 59.2131 23.26ZM58.5931 20C58.5931 20.62 58.9731 21.2 60.0531 21.2C61.0931 21.2 62.0731 20.5 62.0731 20.08V18.3L61.3131 18.68L59.8731 18.92C59.1131 19.04 58.5931 19.4 58.5931 20ZM69.4177 23L66.2377 13H69.0377L70.8577 19.52L72.9777 13H75.6577L77.7177 19.54L79.5977 13H82.2377L79.0577 23H76.4777L74.2577 16.12L72.0377 23H69.4177ZM87.0173 23.26C84.4973 23.26 82.6973 21.96 82.5373 19.76H85.0973C85.1773 20.66 85.9373 21.22 87.0373 21.22C88.0373 21.22 88.6373 20.8 88.6373 20.18C88.6373 19.76 88.3773 19.52 87.7773 19.38L85.4173 18.86C83.8373 18.52 82.9973 17.44 82.9973 15.94C82.9973 14.02 84.6573 12.74 87.0173 12.74C89.4173 12.74 91.0573 14 91.1373 16.14H88.5973C88.5173 15.32 87.9173 14.78 87.0173 14.78C86.1173 14.78 85.4973 15.16 85.4973 15.76C85.4973 16.3 85.8973 16.54 86.4573 16.66L88.4573 17.08C90.2773 17.46 91.1373 18.44 91.1373 19.9C91.1373 21.9 89.4773 23.26 87.0173 23.26ZM98.8145 23V14.88L98.5345 13H101.195L101.395 14.18V14.74C101.715 13.7 102.815 12.76 104.535 12.76C106.635 12.76 107.975 14.22 107.975 16.4V23H105.315V16.98C105.315 15.8 104.715 15.02 103.475 15.02C102.215 15.02 101.475 15.88 101.475 16V23H98.8145ZM113.33 8.94C113.21 9.40667 113.057 9.91333 112.87 10.46C112.684 10.9933 112.484 11.5333 112.27 12.08C112.057 12.6133 111.837 13.1267 111.61 13.62H109.47C109.564 13.22 109.657 12.8067 109.75 12.38C109.844 11.9533 109.93 11.5267 110.01 11.1C110.104 10.66 110.184 10.24 110.25 9.84C110.33 9.44 110.397 9.06667 110.45 8.72H113.19L113.33 8.94ZM121.339 23V8.9H126.879C129.559 8.9 131.479 10.72 131.479 13.42C131.479 16.08 129.499 17.88 126.759 17.88H124.099V23H121.339ZM124.099 15.5H126.679C127.879 15.5 128.679 14.7 128.699 13.42C128.719 12.1 127.919 11.3 126.679 11.3H124.099V15.5ZM133.307 23V9.5H135.967V23H133.307ZM141.596 23.26C139.556 23.26 138.276 21.98 138.276 20.22C138.276 18.5 139.476 17.64 141.356 17.32L144.456 16.8V16.28C144.456 15.4 143.836 14.86 142.836 14.86C141.856 14.86 141.196 15.38 141.136 16.16H138.476C138.556 14.04 140.236 12.7 142.836 12.7C145.436 12.7 147.076 14.1 147.076 16.32V21.18L147.596 23H144.936L144.516 21.48C144.316 22.18 143.496 23.26 141.596 23.26ZM140.976 20C140.976 20.62 141.356 21.2 142.436 21.2C143.476 21.2 144.456 20.5 144.456 20.08V18.3L143.696 18.68L142.256 18.92C141.496 19.04 140.976 19.4 140.976 20ZM150.324 25.68L151.964 21.9L147.984 13H150.884L153.244 18.84L155.684 12.98L158.584 13L153.164 25.68H150.324Z" fill="white"/>
</svg>
