<svg width="28" height="25" viewBox="0 0 28 25" fill="none" xmlns="http://www.w3.org/2000/svg">
<path d="M5.328 0C5.988 0 7.172 0.204 7.172 1.829C7.172 3.454 6 4.079 5.328 4.079C4.656 4.079 3.625 3.441 3.625 1.829C3.625 0.216 4.758 0 5.328 0ZM1.703 2.04C2.363 2.04 3.547 2.243 3.547 3.868C3.547 5.493 2.375 6.118 1.703 6.118C1.031 6.118 0 5.481 0 3.868C0 2.256 1.133 2.04 1.703 2.04ZM11.547 1.829C11.547 0.204 10.363 0.000999928 9.703 0.000999928C9.133 0.000999928 8 0.216 8 1.829C8 3.441 9.031 4.079 9.703 4.079C10.375 4.079 11.547 3.454 11.547 1.829ZM13.25 2.04C13.91 2.04 15.094 2.243 15.094 3.868C15.094 5.493 13.922 6.118 13.25 6.118C12.578 6.118 11.547 5.481 11.547 3.868C11.547 2.256 12.68 2.04 13.25 2.04ZM12.531 10.009C12.531 7.087 10.641 4.556 7.547 4.556C4.453 4.556 2.594 7.024 2.594 10.009C2.594 12.493 5.555 12.493 7.54 12.493H7.547C9.75 12.493 12.531 12.415 12.531 10.009ZM13.703 14.087C14.363 14.087 15.547 14.29 15.547 15.915C15.547 17.54 14.375 18.165 13.703 18.165C13.031 18.165 12 17.527 12 15.915C12 14.302 13.133 14.087 13.703 14.087ZM19.172 13.876C19.172 12.251 17.988 12.048 17.328 12.048C16.758 12.048 15.625 12.263 15.625 13.876C15.625 15.488 16.656 16.126 17.328 16.126C18 16.126 19.172 15.501 19.172 13.876ZM21.703 12.048C22.363 12.048 23.547 12.251 23.547 13.876C23.547 15.501 22.375 16.126 21.703 16.126C21.031 16.126 20 15.488 20 13.876C20 12.263 21.133 12.048 21.703 12.048ZM27.094 15.915C27.094 14.29 25.91 14.087 25.25 14.087C24.68 14.087 23.547 14.302 23.547 15.915C23.547 17.527 24.578 18.165 25.25 18.165C25.922 18.165 27.094 17.54 27.094 15.915ZM19.547 16.603C22.641 16.603 24.531 19.133 24.531 22.056C24.531 24.462 21.751 24.54 19.547 24.54H19.539C17.555 24.54 14.594 24.54 14.594 22.056C14.594 19.071 16.454 16.603 19.547 16.603Z" fill="#EFF6FB"/>
</svg>
